<svg width="19" height="17" viewBox="0 0 19 17" fill="none" xmlns="http://www.w3.org/2000/svg">
<path d="M18.6473 1.45493L13.1473 15.6633C13.0929 15.804 13.0046 15.9291 12.8902 16.0275C12.7759 16.1259 12.639 16.1946 12.4917 16.2274C12.3445 16.2603 12.1914 16.2562 12.0461 16.2157C11.9007 16.1752 11.7677 16.0994 11.6586 15.9951L8.55846 13.0297L6.6573 14.9299C6.59315 14.9939 6.51149 15.0374 6.42263 15.055C6.33377 15.0725 6.24169 15.0634 6.15803 15.0287C6.07437 14.9939 6.00287 14.9352 5.95256 14.8599C5.90226 14.7846 5.8754 14.696 5.87538 14.6054V10.463L1.11696 5.91176C0.9989 5.79881 0.913174 5.65635 0.868659 5.49914C0.824144 5.34193 0.82246 5.17567 0.86378 5.01759C0.9051 4.85951 0.987923 4.71534 1.10367 4.60002C1.21942 4.4847 1.3639 4.40241 1.52213 4.36168L17.5638 0.236681C17.7269 0.194903 17.8983 0.198845 18.0593 0.248076C18.2203 0.297307 18.3647 0.389924 18.4765 0.51577C18.5883 0.641616 18.6633 0.795829 18.6933 0.961495C18.7233 1.12716 18.707 1.29788 18.6464 1.45493H18.6473ZM16.417 2.49993L6.36305 9.05501L7.95346 10.5767L16.417 2.49993Z" fill="#1A97D4"/>
</svg>
